<?xml version="1.0" standalone="no"?>
<!DOCTYPE svg PUBLIC "-//W3C//DTD SVG 20010904//EN"
 "http://www.w3.org/TR/2001/REC-SVG-20010904/DTD/svg10.dtd">
<svg version="1.0" xmlns="http://www.w3.org/2000/svg"
 width="1200.000000pt" height="1200.000000pt" viewBox="0 0 1200.000000 1200.000000"
 preserveAspectRatio="xMidYMid meet">
<metadata>
Created by potrace 1.14, written by Peter Selinger 2001-2017
</metadata>
<g transform="translate(0.000000,1200.000000) scale(0.100000,-0.100000)"
fill="#000000" stroke="none">
<path d="M4940 9188 c0 -2 -213 -959 -474 -2128 -328 -1475 -470 -2127 -462
-2132 6 -4 349 -8 762 -8 585 0 754 3 767 13 9 7 115 307 256 727 455 1357
691 2053 702 2066 9 11 149 14 757 16 l745 3 298 715 c165 393 299 718 299
723 0 6 -3650 11 -3650 5z"/>
<path d="M6411 6848 c-11 -29 -61 -159 -111 -288 -51 -129 -112 -293 -136
-365 l-44 -130 28 -6 c15 -3 223 -3 463 -1 l436 5 209 409 c115 225 211 413
212 418 2 6 -191 10 -516 10 l-521 0 -20 -52z"/>
<path d="M2446 4172 c-3 -5 -69 -294 -146 -643 -78 -349 -145 -651 -149 -671
l-9 -38 248 0 247 0 150 443 150 442 238 5 c197 4 239 8 247 20 21 36 185 440
180 445 -9 9 -1150 6 -1156 -3z"/>
<path d="M3801 4163 c-33 -63 -250 -612 -328 -833 -53 -149 -153 -477 -153
-503 0 -16 14 -17 211 -15 l211 3 92 280 92 280 31 3 c45 5 99 -22 118 -57 8
-17 36 -129 60 -248 25 -120 47 -228 50 -240 l5 -23 456 0 455 0 47 74 c26 41
59 95 74 120 l28 46 240 0 241 0 -7 -120 -7 -120 224 2 224 3 0 75 c0 41 -7
348 -15 683 l-14 607 -230 -2 -231 -3 -88 -110 c-132 -164 -443 -581 -692
-928 -214 -299 -220 -306 -227 -274 -4 17 -21 108 -39 201 -38 204 -79 297
-141 331 -21 11 -38 23 -38 26 0 4 17 10 38 14 20 3 70 22 110 41 174 83 332
314 332 484 0 89 -59 164 -149 190 -63 19 -284 29 -633 30 -311 0 -338 -1
-347 -17z m631 -279 c29 -15 30 -18 26 -65 -6 -63 -46 -115 -114 -149 -43 -22
-64 -25 -186 -28 -112 -4 -138 -2 -138 9 0 8 22 66 48 129 l48 115 39 7 c67
11 242 0 277 -18z m1314 -249 c-9 -81 -16 -181 -16 -221 l0 -74 -145 0 c-80 0
-145 4 -145 8 0 8 251 385 295 444 28 37 29 20 11 -157z"/>
<path d="M6796 4172 c-3 -5 -34 -87 -70 -183 -35 -96 -117 -311 -181 -479
-120 -315 -235 -647 -235 -681 0 -19 8 -19 197 -17 l198 3 17 50 c9 28 60 183
113 345 52 162 102 309 109 325 l13 30 22 -75 c13 -41 58 -165 101 -275 43
-110 92 -246 110 -303 l33 -102 201 2 200 3 78 225 c174 502 271 773 334 935
36 94 68 178 71 188 5 16 -9 17 -195 17 -150 0 -201 -3 -205 -12 -58 -144
-242 -602 -262 -657 l-28 -74 -111 369 -111 369 -197 3 c-108 1 -199 -1 -202
-6z"/>
<path d="M8385 4149 c-32 -62 -145 -360 -234 -619 -50 -146 -125 -362 -166
-481 -41 -119 -75 -222 -75 -228 0 -8 58 -11 212 -9 l212 3 59 180 60 181 135
98 c74 54 138 94 142 89 15 -15 110 -489 110 -545 0 -9 514 -11 522 -2 8 7
-39 181 -117 434 -83 269 -115 381 -115 400 0 8 153 124 350 265 192 138 349
253 349 258 1 4 -125 7 -278 7 l-279 0 -314 -241 c-172 -133 -319 -246 -326
-252 -8 -7 -6 7 6 39 65 163 105 260 141 343 23 52 41 98 41 103 0 4 -94 8
-210 8 l-209 0 -16 -31z"/>
<path d="M2909 3423 c-31 -78 -89 -234 -89 -238 0 -3 67 -5 148 -5 l148 0 67
129 c37 70 67 131 67 135 0 3 -74 6 -165 6 l-165 0 -11 -27z"/>
</g>
</svg>
