<?xml version="1.0" standalone="no"?>
<!DOCTYPE svg PUBLIC "-//W3C//DTD SVG 20010904//EN"
 "http://www.w3.org/TR/2001/REC-SVG-20010904/DTD/svg10.dtd">
<svg version="1.0" xmlns="http://www.w3.org/2000/svg"
 width="100.000000pt" height="100.000000pt" viewBox="0 0 100.000000 100.000000"
 preserveAspectRatio="xMidYMid meet">

<g transform="translate(0.000000,100.000000) scale(0.100000,-0.100000)"
fill="#000000" stroke="none">
<path d="M47 833 c-4 -3 -7 -138 -7 -300 l0 -293 90 0 90 0 0 40 0 40 110 0
c99 0 110 -2 120 -20 8 -14 8 -26 0 -40 -11 -20 -8 -20 250 -20 l260 0 -2 298
-3 297 -451 3 c-248 1 -454 -1 -457 -5z m748 -153 c0 -13 -279 -220 -296 -220
-4 0 -31 20 -60 45 -29 25 -56 45 -59 45 -4 0 -40 -25 -80 -55 -72 -54 -90
-61 -97 -38 -4 11 161 143 177 143 4 0 32 -20 62 -45 30 -25 58 -45 62 -45 3
0 65 43 138 95 126 92 153 105 153 75z"/>
<path d="M4 186 c-3 -8 -4 -29 -2 -48 l3 -33 495 0 495 0 0 45 0 45 -493 3
c-417 2 -493 0 -498 -12z"/>
</g>
</svg>
