<svg id="svg" version="1.1" xmlns="http://www.w3.org/2000/svg" xmlns:xlink="http://www.w3.org/1999/xlink" width="400" height="400" viewBox="0, 0, 400,400"><g id="svgg"><path id="path0" d="M164.553 94.750 C 164.324 95.672,133.697 233.470,133.437 234.750 L 133.250 235.667 158.751 235.667 C 179.226 235.667,184.322 235.582,184.610 235.235 C 184.807 234.997,188.488 224.310,192.789 211.485 C 208.291 165.260,216.030 142.503,216.362 142.171 C 216.581 141.952,225.427 141.775,241.573 141.667 L 266.446 141.500 275.213 120.500 C 280.036 108.950,284.503 98.263,285.140 96.750 L 286.300 94.000 225.519 94.000 L 164.739 94.000 164.553 94.750 M213.034 173.750 C 206.851 189.667,204.333 196.549,204.333 197.537 C 204.333 197.925,206.778 198.000,219.486 198.000 L 234.639 198.000 235.442 196.583 C 235.883 195.804,239.119 189.504,242.632 182.583 L 249.019 170.000 231.755 170.000 L 214.491 170.000 213.034 173.750 M81.500 261.417 C 81.263 262.093,71.667 305.258,71.667 305.646 C 71.667 305.886,74.262 305.999,79.750 305.996 L 87.833 305.993 92.870 291.080 L 97.907 276.167 105.891 276.078 L 113.875 275.988 116.759 269.078 C 118.345 265.277,119.740 261.904,119.857 261.583 C 120.060 261.032,119.016 261.000,100.859 261.000 C 85.788 261.000,81.614 261.090,81.500 261.417 M126.129 262.751 C 125.741 263.713,123.996 268.025,122.251 272.333 C 117.333 284.470,112.351 298.809,110.870 305.083 L 110.654 306.000 117.827 306.000 C 123.350 306.000,124.997 305.904,124.987 305.583 C 124.980 305.354,126.285 301.154,127.887 296.250 L 130.800 287.333 132.375 287.333 C 134.239 287.333,135.752 288.396,136.305 290.094 C 136.597 290.990,139.667 305.376,139.667 305.847 C 139.667 305.931,143.257 306.000,147.646 306.000 L 155.625 306.000 155.438 304.750 C 153.669 292.898,152.050 288.210,149.234 286.783 L 147.517 285.913 149.675 285.345 C 161.188 282.316,168.954 266.440,160.851 262.499 C 158.214 261.216,155.471 261.014,140.667 261.007 L 126.833 261.001 126.129 262.751 M186.270 264.583 C 180.187 272.252,170.656 285.112,159.735 300.391 C 157.681 303.265,156.000 305.702,156.000 305.808 C 156.000 305.914,159.196 306.000,163.102 306.000 L 170.203 306.000 172.494 302.213 L 174.784 298.426 177.975 298.215 C 179.731 298.099,183.388 298.003,186.103 298.002 L 191.039 298.000 190.936 302.001 L 190.833 306.001 198.135 306.001 L 205.437 306.000 205.217 299.250 C 205.095 295.537,204.898 285.412,204.779 276.750 L 204.561 261.000 196.837 261.000 L 189.113 261.000 186.270 264.583 M225.721 263.244 C 225.293 264.485,222.990 270.600,220.602 276.833 C 214.757 292.096,210.333 304.576,210.333 305.802 C 210.333 305.911,213.314 306.000,216.956 306.000 L 223.579 306.000 224.160 303.917 C 224.994 300.929,231.207 282.166,231.589 281.485 C 231.842 281.032,232.063 281.425,232.650 283.373 C 233.058 284.726,234.563 288.833,235.994 292.500 C 237.426 296.167,239.083 300.704,239.676 302.583 L 240.756 306.000 247.386 306.000 L 254.017 306.000 254.374 305.083 C 254.570 304.579,256.649 298.617,258.993 291.833 C 263.891 277.657,266.062 271.637,268.521 265.410 L 270.268 260.986 263.606 261.077 L 256.943 261.167 253.486 269.748 C 251.585 274.467,249.485 279.792,248.819 281.581 C 247.347 285.535,247.147 285.774,246.692 284.126 C 246.496 283.415,244.868 277.958,243.075 272.000 L 239.815 261.167 233.158 261.077 L 226.500 260.987 225.721 263.244 M277.583 266.583 C 274.950 273.198,273.458 277.360,268.772 291.167 C 266.843 296.850,264.905 302.455,264.465 303.623 C 264.026 304.791,263.667 305.806,263.667 305.880 C 263.667 305.953,266.839 305.973,270.717 305.923 L 277.768 305.833 279.801 299.886 L 281.833 293.939 286.333 290.665 C 288.808 288.865,290.934 287.491,291.057 287.613 C 291.403 287.953,293.620 298.203,294.239 302.323 L 294.791 306.000 303.396 306.000 C 308.128 306.000,312.000 305.915,312.000 305.810 C 312.000 305.145,309.964 297.822,308.165 292.015 C 304.094 278.874,303.937 278.243,304.592 277.631 C 304.908 277.337,310.042 273.605,316.000 269.339 C 321.958 265.073,326.976 261.452,327.150 261.291 C 327.331 261.125,323.475 261.000,318.130 261.000 L 308.792 261.000 298.980 268.533 C 293.582 272.676,288.830 276.377,288.418 276.757 C 288.006 277.136,287.587 277.365,287.487 277.265 C 287.301 277.079,290.177 269.678,292.610 264.083 L 293.950 261.000 286.878 261.000 L 279.806 261.000 277.583 266.583 M146.753 270.018 C 150.543 271.071,148.548 276.739,143.875 278.199 C 142.145 278.740,133.667 279.291,133.667 278.863 C 133.667 278.615,136.928 270.386,137.202 269.943 C 137.448 269.544,145.269 269.606,146.753 270.018 M191.844 277.013 C 191.591 279.481,191.280 283.112,191.152 285.083 L 190.920 288.667 185.941 288.667 C 182.049 288.667,181.014 288.576,181.204 288.250 C 183.199 284.838,191.964 272.186,192.182 272.404 C 192.249 272.471,192.097 274.546,191.844 277.013 M95.848 289.065 C 93.757 294.446,93.464 294.000,99.090 294.000 L 103.846 294.000 105.923 289.830 C 107.065 287.536,108.000 285.594,108.000 285.513 C 108.000 285.431,105.607 285.321,102.682 285.266 L 97.363 285.167 95.848 289.065 " stroke="none" fill="#040404" fill-rule="evenodd"></path><path id="path1" d="M186.667 0.216 C 92.480 6.901,15.550 77.714,2.036 170.167 C -1.260 192.719,-0.590 218.260,3.873 240.167 C 19.841 318.548,81.452 380.159,159.833 396.127 C 185.471 401.350,214.529 401.350,240.167 396.127 C 318.548 380.159,380.159 318.548,396.127 240.167 C 401.350 214.529,401.350 185.471,396.127 159.833 C 378.656 74.075,308.714 10.805,220.333 0.809 C 215.711 0.286,191.650 -0.138,186.667 0.216 M286.315 94.083 C 286.305 94.313,281.843 105.150,276.398 118.167 L 266.500 141.833 241.698 141.919 C 224.722 141.977,216.761 142.117,216.468 142.360 C 216.232 142.556,215.484 144.393,214.806 146.441 C 207.819 167.557,184.897 235.222,184.617 235.560 C 184.205 236.056,133.518 236.234,133.213 235.741 C 133.087 235.538,163.980 95.710,164.510 94.083 C 164.618 93.752,177.109 93.667,225.490 93.667 C 273.952 93.667,286.330 93.751,286.315 94.083 M248.991 170.256 C 248.986 170.390,245.798 176.725,241.908 184.333 L 234.833 198.167 219.500 198.167 L 204.167 198.167 204.273 197.183 C 204.411 195.908,207.158 188.306,211.198 178.022 L 214.414 169.833 231.707 169.923 C 241.218 169.972,248.996 170.122,248.991 170.256 M120.197 261.209 C 120.082 261.507,118.623 265.030,116.955 269.037 L 113.921 276.322 105.905 276.411 L 97.889 276.500 93.028 291.008 C 90.354 298.987,88.045 305.699,87.897 305.924 C 87.587 306.395,71.829 306.532,71.541 306.067 C 71.450 305.920,73.523 296.132,76.148 284.317 C 78.772 272.501,81.025 262.346,81.153 261.750 L 81.386 260.667 100.895 260.667 C 118.779 260.667,120.387 260.712,120.197 261.209 M158.820 261.462 C 169.028 264.370,163.592 280.882,151.036 285.110 C 148.548 285.948,147.833 286.333,148.766 286.333 C 149.734 286.333,151.546 288.267,152.427 290.241 C 153.162 291.887,153.774 294.611,155.605 304.383 L 155.833 305.599 162.167 296.741 C 169.808 286.052,180.028 272.288,185.300 265.584 L 189.167 260.668 196.917 260.667 C 201.179 260.667,204.671 260.779,204.676 260.917 C 204.681 261.054,204.825 268.592,204.996 277.667 C 205.166 286.742,205.409 296.904,205.536 300.250 L 205.766 306.333 198.216 306.333 L 190.667 306.333 190.667 302.333 L 190.667 298.333 182.860 298.333 L 175.053 298.333 172.623 302.337 L 170.194 306.340 154.877 306.253 L 139.559 306.167 137.861 297.983 C 135.814 288.117,135.373 287.345,131.786 287.335 C 130.995 287.333,129.222 291.947,126.310 301.583 L 124.875 306.333 117.582 306.333 C 110.790 306.333,110.301 306.293,110.468 305.750 C 110.566 305.429,111.169 303.367,111.806 301.167 C 113.955 293.746,117.352 284.228,122.076 272.386 L 126.777 260.605 141.805 260.750 C 154.638 260.875,157.124 260.979,158.820 261.462 M243.494 272.836 C 245.493 279.529,247.221 284.891,247.335 284.752 C 247.448 284.614,248.335 282.422,249.304 279.882 C 250.274 277.343,252.388 272.018,254.002 268.049 L 256.937 260.833 263.635 260.743 C 267.941 260.685,270.333 260.772,270.333 260.986 C 270.333 261.170,269.717 262.860,268.964 264.743 C 266.642 270.545,264.451 276.604,259.291 291.487 C 256.561 299.362,254.205 305.928,254.056 306.077 C 253.907 306.226,250.817 306.307,247.189 306.257 L 240.592 306.167 239.801 303.427 C 239.366 301.919,237.819 297.644,236.363 293.927 C 234.907 290.209,233.300 285.855,232.793 284.253 L 231.871 281.339 231.416 282.419 C 230.892 283.665,225.797 299.080,224.476 303.417 L 223.588 306.333 216.794 306.333 C 213.057 306.333,210.000 306.240,210.000 306.125 C 210.000 305.291,215.765 288.999,219.637 278.892 C 222.223 272.142,224.806 265.279,225.378 263.642 L 226.417 260.667 233.138 260.667 L 239.859 260.667 243.494 272.836 M294.000 260.970 C 294.000 261.138,293.462 262.525,292.804 264.054 C 290.912 268.452,287.628 276.739,287.735 276.844 C 287.789 276.897,292.590 273.278,298.403 268.803 L 308.972 260.667 318.319 260.667 C 323.460 260.667,327.664 260.779,327.661 260.917 C 327.656 261.112,306.379 276.609,304.643 277.682 C 304.120 278.005,304.550 279.731,307.671 289.833 C 309.911 297.087,312.333 305.526,312.333 306.080 C 312.333 306.219,308.361 306.333,303.506 306.333 L 294.679 306.333 294.529 305.583 C 294.446 305.171,294.207 303.633,293.998 302.167 C 293.539 298.957,291.379 288.688,291.032 288.069 C 290.852 287.747,289.578 288.513,286.326 290.897 L 281.866 294.167 279.850 300.167 L 277.833 306.167 270.545 306.257 C 263.683 306.341,263.271 306.312,263.504 305.757 C 263.641 305.432,265.687 299.542,268.052 292.667 C 273.905 275.655,274.714 273.399,277.406 266.583 L 279.743 260.667 286.872 260.667 C 290.940 260.667,294.000 260.797,294.000 260.970 M136.806 271.250 C 135.988 273.158,134.000 278.285,134.000 278.487 C 134.000 278.846,140.889 278.641,142.886 278.222 C 146.166 277.535,148.676 275.017,148.662 272.430 C 148.650 270.376,147.590 270.000,141.816 270.000 L 137.342 270.000 136.806 271.250 M189.126 276.618 C 187.637 278.753,185.275 282.262,183.878 284.417 L 181.337 288.333 186.169 288.333 L 191.000 288.333 191.000 285.670 C 191.000 284.205,191.236 280.741,191.525 277.972 C 191.813 275.203,192.001 272.893,191.941 272.837 C 191.882 272.782,190.615 274.483,189.126 276.618 M108.319 285.250 C 108.312 285.387,107.299 287.450,106.069 289.833 L 103.833 294.167 99.076 294.259 C 95.298 294.333,94.284 294.258,94.145 293.896 C 94.001 293.522,96.540 286.347,97.185 285.303 C 97.409 284.941,108.340 284.889,108.319 285.250 " stroke="none" fill="#fccc6c" fill-rule="evenodd"></path><path id="path2" d="M195.110 93.917 C 211.945 93.964,239.395 93.964,256.110 93.917 C 272.824 93.869,259.050 93.830,225.500 93.830 C 191.950 93.830,178.274 93.869,195.110 93.917 M229.750 141.917 C 236.487 141.967,247.512 141.967,254.250 141.917 C 260.987 141.866,255.475 141.825,242.000 141.825 C 228.525 141.825,223.012 141.866,229.750 141.917 M207.093 198.245 C 207.970 198.314,209.320 198.313,210.093 198.244 C 210.867 198.174,210.150 198.117,208.500 198.118 C 206.850 198.119,206.217 198.177,207.093 198.245 M91.274 260.917 C 96.649 260.968,105.349 260.968,110.607 260.916 C 115.865 260.865,111.467 260.823,100.833 260.823 C 90.200 260.823,85.898 260.865,91.274 260.917 M132.917 260.916 C 136.262 260.971,141.738 260.971,145.083 260.916 C 148.429 260.862,145.692 260.817,139.000 260.817 C 132.308 260.817,129.571 260.862,132.917 260.916 M193.083 260.916 C 195.237 260.974,198.762 260.974,200.917 260.916 C 203.071 260.858,201.308 260.810,197.000 260.810 C 192.692 260.810,190.929 260.858,193.083 260.916 M229.934 260.915 C 231.823 260.975,234.823 260.975,236.601 260.915 C 238.379 260.855,236.833 260.806,233.167 260.807 C 229.500 260.807,228.045 260.856,229.934 260.915 M260.250 260.915 C 262.129 260.975,265.204 260.975,267.083 260.915 C 268.962 260.856,267.425 260.807,263.667 260.807 C 259.908 260.807,258.371 260.856,260.250 260.915 M283.417 260.915 C 285.387 260.974,288.612 260.974,290.583 260.915 C 292.554 260.856,290.942 260.808,287.000 260.808 C 283.058 260.808,281.446 260.856,283.417 260.915 M312.000 260.901 C 319.864 261.137,327.667 261.145,327.667 260.917 C 327.667 260.779,323.429 260.698,318.250 260.736 C 313.071 260.775,310.258 260.849,312.000 260.901 M137.750 269.896 C 138.071 269.980,138.596 269.980,138.917 269.896 C 139.237 269.813,138.975 269.744,138.333 269.744 C 137.692 269.744,137.429 269.813,137.750 269.896 M204.779 278.000 C 204.779 279.375,204.838 279.938,204.909 279.250 C 204.981 278.563,204.981 277.438,204.909 276.750 C 204.838 276.063,204.779 276.625,204.779 278.000 M102.083 276.249 C 104.237 276.307,107.763 276.307,109.917 276.249 C 112.071 276.191,110.308 276.143,106.000 276.143 C 101.692 276.143,99.929 276.191,102.083 276.249 M135.417 278.912 C 136.287 278.980,137.712 278.980,138.583 278.912 C 139.454 278.843,138.742 278.787,137.000 278.787 C 135.258 278.787,134.546 278.843,135.417 278.912 M205.091 292.000 C 205.091 292.825,205.156 293.162,205.235 292.750 C 205.315 292.337,205.315 291.662,205.235 291.250 C 205.156 290.837,205.091 291.175,205.091 292.000 M186.583 298.244 C 187.362 298.314,188.637 298.314,189.417 298.244 C 190.196 298.174,189.558 298.116,188.000 298.116 C 186.442 298.116,185.804 298.174,186.583 298.244 M190.744 302.667 C 190.744 303.308,190.813 303.571,190.896 303.250 C 190.980 302.929,190.980 302.404,190.896 302.083 C 190.813 301.762,190.744 302.025,190.744 302.667 M205.411 302.667 C 205.411 303.308,205.479 303.571,205.563 303.250 C 205.647 302.929,205.647 302.404,205.563 302.083 C 205.479 301.762,205.411 302.025,205.411 302.667 M303.333 306.000 L 294.500 306.183 303.230 306.258 C 308.773 306.306,312.036 306.212,312.167 306.000 C 312.280 305.817,312.326 305.700,312.270 305.742 C 312.213 305.783,308.192 305.899,303.333 306.000 M114.083 306.249 C 116.054 306.308,119.279 306.308,121.250 306.249 C 123.221 306.190,121.608 306.142,117.667 306.142 C 113.725 306.142,112.112 306.190,114.083 306.249 M143.602 306.249 C 145.859 306.307,149.459 306.307,151.602 306.249 C 153.746 306.191,151.900 306.144,147.500 306.144 C 143.100 306.144,141.346 306.191,143.602 306.249 M159.417 306.249 C 161.387 306.308,164.612 306.308,166.583 306.249 C 168.554 306.190,166.942 306.142,163.000 306.142 C 159.058 306.142,157.446 306.190,159.417 306.249 M194.250 306.249 C 196.313 306.307,199.688 306.307,201.750 306.249 C 203.813 306.190,202.125 306.143,198.000 306.143 C 193.875 306.143,192.188 306.190,194.250 306.249 M213.601 306.249 C 215.490 306.308,218.490 306.308,220.268 306.248 C 222.045 306.188,220.500 306.140,216.833 306.140 C 213.167 306.140,211.712 306.189,213.601 306.249 M243.917 306.249 C 245.796 306.308,248.871 306.308,250.750 306.249 C 252.629 306.189,251.092 306.141,247.333 306.141 C 243.575 306.141,242.037 306.189,243.917 306.249 M267.083 306.249 C 269.054 306.308,272.279 306.308,274.250 306.249 C 276.221 306.190,274.608 306.142,270.667 306.142 C 266.725 306.142,265.112 306.190,267.083 306.249 " stroke="none" fill="#7c6434" fill-rule="evenodd"></path><path id="path3" d="M217.083 198.249 C 220.338 198.304,225.663 198.304,228.917 198.249 C 232.171 198.195,229.508 198.150,223.000 198.150 C 216.492 198.150,213.829 198.195,217.083 198.249 M151.583 260.902 C 151.996 260.981,152.671 260.981,153.083 260.902 C 153.496 260.822,153.158 260.757,152.333 260.757 C 151.508 260.757,151.171 260.822,151.583 260.902 M204.797 271.333 C 204.797 273.808,204.850 274.821,204.914 273.583 C 204.978 272.346,204.978 270.321,204.914 269.083 C 204.850 267.846,204.797 268.858,204.797 271.333 M140.583 269.911 C 141.362 269.981,142.637 269.981,143.417 269.911 C 144.196 269.841,143.558 269.783,142.000 269.783 C 140.442 269.783,139.804 269.841,140.583 269.911 M205.095 289.167 C 205.098 290.083,205.163 290.419,205.239 289.912 C 205.316 289.405,205.314 288.655,205.235 288.245 C 205.156 287.835,205.093 288.250,205.095 289.167 M183.765 288.581 C 185.194 288.644,187.444 288.644,188.765 288.581 C 190.086 288.517,188.917 288.466,186.167 288.467 C 183.417 288.467,182.336 288.519,183.765 288.581 M96.583 294.248 C 97.912 294.311,100.087 294.311,101.417 294.248 C 102.746 294.184,101.658 294.132,99.000 294.132 C 96.342 294.132,95.254 294.184,96.583 294.248 M190.767 300.000 C 190.767 301.008,190.829 301.421,190.905 300.917 C 190.982 300.412,190.982 299.587,190.905 299.083 C 190.829 298.579,190.767 298.992,190.767 300.000 M205.424 300.333 C 205.424 301.158,205.489 301.496,205.569 301.083 C 205.648 300.671,205.648 299.996,205.569 299.583 C 205.489 299.171,205.424 299.508,205.424 300.333 M75.583 306.249 C 77.829 306.307,81.504 306.307,83.750 306.249 C 85.996 306.191,84.158 306.144,79.667 306.144 C 75.175 306.144,73.337 306.191,75.583 306.249 " stroke="none" fill="#9b8143" fill-rule="evenodd"></path><path id="path4" d="M146.583 235.917 C 153.412 235.967,164.587 235.967,171.417 235.917 C 178.246 235.866,172.658 235.825,159.000 235.825 C 145.342 235.825,139.754 235.866,146.583 235.917 M204.770 282.167 C 204.772 283.267,204.834 283.676,204.908 283.077 C 204.982 282.478,204.981 281.578,204.905 281.077 C 204.829 280.576,204.768 281.067,204.770 282.167 M99.333 285.225 C 103.800 285.467,108.335 285.479,108.334 285.250 C 108.334 285.112,105.896 285.028,102.917 285.063 C 99.938 285.098,98.325 285.171,99.333 285.225 M205.095 294.833 C 205.098 295.750,205.163 296.085,205.239 295.579 C 205.316 295.072,205.314 294.322,205.235 293.912 C 205.156 293.502,205.093 293.917,205.095 294.833 M180.595 298.246 C 181.563 298.314,183.063 298.313,183.928 298.245 C 184.793 298.176,184.000 298.121,182.167 298.122 C 180.333 298.123,179.626 298.179,180.595 298.246 M190.744 304.667 C 190.744 305.308,190.813 305.571,190.896 305.250 C 190.980 304.929,190.980 304.404,190.896 304.083 C 190.813 303.762,190.744 304.025,190.744 304.667 M205.417 304.833 C 205.421 305.567,205.489 305.827,205.569 305.413 C 205.649 304.998,205.646 304.398,205.562 304.079 C 205.479 303.761,205.414 304.100,205.417 304.833 " stroke="none" fill="#6c5c34" fill-rule="evenodd"></path></g></svg>